<svg xmlns="http://www.w3.org/2000/svg" xmlns:xlink="http://www.w3.org/1999/xlink" version="1.1" width="256" height="256" viewBox="0 0 256 256" xml:space="preserve">

<defs>
</defs>
<g style="stroke: none; stroke-width: 0; stroke-dasharray: none; stroke-linecap: butt; stroke-linejoin: miter; stroke-miterlimit: 10; fill: none; fill-rule: nonzero; opacity: 1;" transform="translate(1.4065934065934016 1.4065934065934016) scale(2.81 2.81)" >
	<path d="M 73.333 89.989 c -0.037 -0.004 -0.072 -0.014 -0.108 -0.022 c -0.472 -0.081 -0.837 -0.472 -0.837 -0.967 v -9.931 c 0 -0.553 0.447 -1 1 -1 s 1 0.447 1 1 v 7.855 c 5.501 -4.776 9.048 -11.302 10.046 -18.587 c 1.09 -7.952 -0.986 -15.859 -5.841 -22.254 c -4.154 -5.473 -9.92 -9.281 -16.481 -10.948 c -0.041 0.421 -0.091 0.843 -0.148 1.264 c -1.161 8.485 -5.558 16.009 -12.38 21.188 c -9.987 7.582 -17.714 6.48 -21.295 3.233 c -3.588 -3.254 -3.748 -8.866 -0.406 -14.297 c 1.684 -2.737 4.168 -5.361 7.381 -7.8 c 6.821 -5.179 15.25 -7.39 23.735 -6.229 c 0.422 0.058 0.841 0.124 1.258 0.197 c 0.179 -6.757 -1.96 -13.345 -6.115 -18.818 C 44.119 0.67 25.224 -1.917 12.021 8.105 c -3.016 2.289 -5.332 4.731 -6.886 7.256 c -0.289 0.471 -0.905 0.617 -1.376 0.328 c -0.471 -0.29 -0.618 -0.907 -0.328 -1.376 c 1.684 -2.737 4.167 -5.362 7.381 -7.801 c 14.081 -10.69 34.233 -7.93 44.924 6.151 c 4.508 5.937 6.763 13.087 6.511 20.443 c 7.149 1.729 13.433 5.829 17.94 11.766 c 4.277 5.634 6.53 12.366 6.53 19.32 c 0 1.464 -0.1 2.94 -0.302 4.416 C 85.381 76.16 81.78 82.946 76.193 88 h 7.127 c 0.553 0 1 0.447 1 1 c 0 0.553 -0.447 1 -1 1 h -9.931 C 73.369 90 73.353 89.99 73.333 89.989 z M 58.728 34.476 c -7.955 -1.09 -15.859 0.985 -22.254 5.84 c -3.016 2.289 -5.332 4.73 -6.887 7.256 c -1.421 2.308 -2.13 4.583 -2.13 6.608 c 0 2.048 0.726 3.842 2.177 5.157 c 3.251 2.95 10.308 3.059 18.742 -3.344 c 6.396 -4.855 10.518 -11.91 11.607 -19.865 c 0.065 -0.475 0.119 -0.949 0.161 -1.424 C 59.675 34.617 59.203 34.541 58.728 34.476 z" style="stroke: none; stroke-width: 1; stroke-dasharray: none; stroke-linecap: butt; stroke-linejoin: miter; stroke-miterlimit: 10; fill: #ea580c; fill-rule: nonzero; opacity: 1;" transform=" matrix(1 0 0 1 0 0) " stroke-linecap="round" />
</g>
</svg>