<svg width="225" height="107" viewBox="0 0 225 107" fill="none" xmlns="http://www.w3.org/2000/svg">
<path d="M14 77C51.9983 90.382 94.6326 93.7789 134.722 92.5555C158.269 91.837 190.116 87.516 208.222 70.3333C219.645 59.4937 220.24 46.2916 213.056 32.7778C198.008 4.47348 165.062 3.90379 136.611 2.77778C103.548 1.46922 68.1282 -0.435969 35.3333 5.11111C24.0187 7.02492 10.6246 10.3826 4.38889 21.1667C-1.68875 31.6774 3.89288 42.8302 11.2222 51C25.332 66.7277 45.2471 78.1176 63.8889 87.3889C82.6584 96.7237 102.494 104.097 123.667 105.111C158.768 106.792 191.789 93.9758 224 82" stroke="#EA580C" stroke-width="2" stroke-linecap="round"/>
</svg>
